<svg xmlns="http://www.w3.org/2000/svg" width="24" height="24" viewBox="0 0 24 24" fill="none" stroke="white" stroke-width="2" stroke-linecap="round" stroke-linejoin="round">
    <path d="M6.79 1.85A2.24 2.24 0 0 0 5.14 3.2L1.86 9.57a2.22 2.22 0 0 0-.25 1.15V17a2 2 0 0 0 2 2h16a2 2 0 0 0 2-2v-6.28a2.22 2.22 0 0 0-.25-1.15L18.86 3.2a2.24 2.24 0 0 0-1.65-1.35Z"/>
    <path d="M12 12H6.83a4 4 0 0 0-3.5 2.06"/>
    <path d="m12 12 1.83 2.06a4 4 0 0 1 3.5 0L20.5 12"/>
    <path d="M12 19V12"/>
</svg> 